<?xml version="1.0" standalone="no"?>
<!DOCTYPE svg PUBLIC "-//W3C//DTD SVG 20010904//EN"
 "http://www.w3.org/TR/2001/REC-SVG-20010904/DTD/svg10.dtd">
<svg version="1.0" xmlns="http://www.w3.org/2000/svg"
 width="229.000000pt" height="230.000000pt" viewBox="0 0 229.000000 230.000000"
 preserveAspectRatio="xMidYMid meet">
<metadata>
Created by potrace 1.10, written by Peter Selinger 2001-2011
</metadata>
<g transform="translate(0.000000,230.000000) scale(0.100000,-0.100000)"
fill="#430909" stroke="none">
<path d="M1010 1869 c-170 -20 -312 -92 -446 -225 -104 -104 -160 -194 -200
-326 -23 -72 -26 -101 -27 -228 -1 -162 15 -235 78 -360 84 -166 282 -340 445
-389 25 -7 56 -17 70 -21 23 -8 140 -22 185 -23 74 -1 183 18 275 47 150 48
340 213 422 366 81 150 109 297 89 475 -17 161 -76 293 -183 417 -136 156
-309 248 -508 269 -95 10 -108 10 -200 -2z m280 -614 l165 -165 -160 -160
c-88 -88 -166 -160 -174 -160 -18 0 -61 39 -61 54 0 6 45 56 100 111 l100 100
-232 5 -233 5 0 45 0 45 233 5 232 5 -100 100 c-55 55 -100 104 -100 109 0 11
50 66 59 66 4 0 80 -74 171 -165z"/>
</g>
</svg>
